<svg width="48" height="48" viewBox="0 0 48 48" fill="none" xmlns="http://www.w3.org/2000/svg">
<path d="M0 24C0 10.7452 10.7452 0 24 0C37.2548 0 48 10.7452 48 24C48 37.2548 37.2548 48 24 48C10.7452 48 0 37.2548 0 24Z" fill="url(#paint0_linear_437_47)"/>
<path d="M26.5015 38.1115V25.0542H30.1058L30.5835 20.5546H26.5015L26.5076 18.3025C26.5076 17.1289 26.6191 16.5001 28.3047 16.5001H30.558V12H26.9531C22.623 12 21.099 14.1828 21.099 17.8536V20.5551H18.3999V25.0547H21.099V38.1115H26.5015Z" fill="white"/>
<defs>
<linearGradient id="paint0_linear_437_47" x1="24" y1="0" x2="24" y2="48" gradientUnits="userSpaceOnUse">
<stop stop-color="#5EE5FC"/>
<stop offset="1" stop-color="#51A6FE"/>
</linearGradient>
</defs>
</svg>
