<svg width="162" height="163" viewBox="0 0 162 163" fill="none" xmlns="http://www.w3.org/2000/svg">
<path d="M15.5789 137.313L14.1521 131.668C11.6224 130.593 9.03426 129.661 6.39998 128.878L6.2199 131.502L5.48955 128.611C2.22257 127.675 0 127.262 0 127.262C0 127.262 3.00141 138.715 9.29874 147.47L16.6357 148.763L10.9358 149.587C11.728 150.543 12.5792 151.449 13.4846 152.298C22.6444 160.827 32.8468 164.74 36.2721 161.038C39.6974 157.336 35.0487 147.421 25.889 138.892C23.0494 136.248 19.4822 134.126 15.9114 132.456L15.5789 137.313Z" fill="#F2F2F2"/>
<path d="M29.1473 131.182L30.8347 125.61C29.2234 123.377 27.488 121.238 25.6365 119.202L24.1306 121.354L24.9945 118.501C22.6802 116.006 20.99 114.501 20.99 114.501C20.99 114.501 17.6591 125.861 18.5378 136.621L24.1524 141.532L18.8473 139.282C19.0329 140.512 19.2954 141.728 19.6333 142.925C23.0797 154.976 29.797 163.616 34.6367 162.223C39.4763 160.83 40.606 149.932 37.1596 137.881C36.0913 134.145 34.1308 130.479 31.9347 127.197L29.1473 131.182Z" fill="#F2F2F2"/>
<path d="M113.043 38.6148H112.153V14.1564C112.153 12.2974 111.788 10.4565 111.079 8.73899C110.37 7.02145 109.33 5.46086 108.02 4.14632C106.709 2.83177 105.154 1.78902 103.442 1.07759C101.729 0.366165 99.8944 0 98.0412 0H46.3849C42.6422 0 39.0529 1.49148 36.4064 4.14632C33.76 6.80116 32.2732 10.4019 32.2732 14.1564V148.339C32.2732 150.198 32.6382 152.039 33.3474 153.757C34.0566 155.474 35.096 157.035 36.4064 158.349C37.7168 159.664 39.2725 160.707 40.9846 161.418C42.6967 162.13 44.5317 162.496 46.3849 162.496H98.0412C101.784 162.496 105.373 161.004 108.02 158.349C110.666 155.695 112.153 152.094 112.153 148.339V56.0248H113.043L113.043 38.6148Z" fill="#E6E6E6"/>
<path d="M98.6106 3.68164H91.8683C92.1784 4.44432 92.2968 5.2718 92.213 6.09119C92.1291 6.91057 91.8457 7.69669 91.3877 8.38031C90.9297 9.06393 90.3111 9.62405 89.5864 10.0113C88.8618 10.3986 88.0533 10.6011 87.2322 10.6011H57.6389C56.8178 10.6011 56.0094 10.3985 55.2848 10.0112C54.5602 9.62387 53.9417 9.06374 53.4837 8.38013C53.0257 7.69653 52.7423 6.91042 52.6585 6.09108C52.5748 5.27173 52.6931 4.44429 53.0032 3.68164H46.7055C43.9105 3.68164 41.23 4.79546 39.2536 6.77807C37.2773 8.76068 36.167 11.4497 36.167 14.2535V148.242C36.167 151.045 37.2773 153.734 39.2536 155.717C41.23 157.7 43.9105 158.813 46.7055 158.813H98.6106C101.406 158.813 104.086 157.7 106.062 155.717C108.039 153.734 109.149 151.045 109.149 148.242V148.242V14.2533C109.149 11.4495 108.039 8.76056 106.062 6.77799C104.086 4.79543 101.406 3.68164 98.6106 3.68164V3.68164Z" fill="white"/>
<path d="M66.0439 57.0557C66.0437 56.1192 66.2895 55.1991 66.7564 54.3881C67.2234 53.5771 67.895 52.9038 68.7038 52.4359C67.8954 51.9676 66.9784 51.7209 66.0449 51.7208C65.1114 51.7207 64.1943 51.9671 63.3858 52.4353C62.5773 52.9035 61.9059 53.5769 61.4391 54.3879C60.9723 55.1989 60.7266 56.1189 60.7266 57.0554C60.7266 57.9919 60.9723 58.9119 61.4391 59.7229C61.9059 60.5339 62.5773 61.2073 63.3858 61.6755C64.1943 62.1437 65.1114 62.3901 66.0449 62.39C66.9784 62.3899 67.8954 62.1433 68.7038 61.6749C67.8951 61.2072 67.2235 60.534 66.7565 59.7231C66.2895 58.9122 66.0438 57.9922 66.0439 57.0557V57.0557Z" fill="#CCCCCC"/>
<path d="M72.729 57.0557C72.7288 56.1192 72.9745 55.1991 73.4415 54.3881C73.9084 53.5771 74.5801 52.9037 75.3889 52.4359C74.5805 51.9676 73.6635 51.7209 72.7299 51.7208C71.7964 51.7207 70.8793 51.9671 70.0708 52.4353C69.2623 52.9035 68.5909 53.5769 68.1242 54.3879C67.6574 55.1989 67.4116 56.1189 67.4116 57.0554C67.4116 57.9919 67.6574 58.9119 68.1242 59.7229C68.5909 60.5339 69.2623 61.2073 70.0708 61.6755C70.8793 62.1437 71.7964 62.3901 72.7299 62.39C73.6635 62.3899 74.5805 62.1433 75.3889 61.6749C74.5802 61.2072 73.9085 60.534 73.4416 59.7231C72.9746 58.9122 72.7288 57.9922 72.729 57.0557V57.0557Z" fill="#CCCCCC"/>
<path d="M79.2621 62.3901C82.199 62.3901 84.5798 60.0017 84.5798 57.0555C84.5798 54.1093 82.199 51.7209 79.2621 51.7209C76.3252 51.7209 73.9443 54.1093 73.9443 57.0555C73.9443 60.0017 76.3252 62.3901 79.2621 62.3901Z" fill="url(#paint0_linear_440_4259)"/>
<path d="M88.1495 73.7175H57.1566C56.8616 73.7172 56.5787 73.5994 56.37 73.3901C56.1614 73.1808 56.044 72.897 56.0437 72.6011V41.5099C56.044 41.2139 56.1614 40.9301 56.37 40.7208C56.5787 40.5115 56.8616 40.3938 57.1566 40.3934H88.1495C88.4446 40.3938 88.7274 40.5115 88.9361 40.7208C89.1447 40.9301 89.2621 41.2139 89.2624 41.5099V72.6011C89.2621 72.897 89.1447 73.1808 88.9361 73.3901C88.7274 73.5994 88.4446 73.7172 88.1495 73.7175V73.7175ZM57.1566 40.8403C56.9796 40.8404 56.8098 40.9111 56.6847 41.0367C56.5595 41.1622 56.4891 41.3325 56.4889 41.5101V72.6013C56.4891 72.7789 56.5595 72.9491 56.6847 73.0747C56.8098 73.2003 56.9796 73.2709 57.1566 73.2711H88.1495C88.3265 73.2709 88.4963 73.2003 88.6215 73.0747C88.7466 72.9491 88.817 72.7789 88.8172 72.6013V41.5101C88.817 41.3325 88.7466 41.1622 88.6215 41.0367C88.4963 40.9111 88.3265 40.8404 88.1495 40.8403H57.1566Z" fill="#CCCCCC"/>
<path d="M95.0696 97.5503H47.5359V97.9969H95.0696V97.5503Z" fill="#CCCCCC"/>
<path d="M49.037 94.7619C49.8661 94.7619 50.5382 94.0877 50.5382 93.256C50.5382 92.4243 49.8661 91.7501 49.037 91.7501C48.208 91.7501 47.5359 92.4243 47.5359 93.256C47.5359 94.0877 48.208 94.7619 49.037 94.7619Z" fill="url(#paint1_linear_440_4259)"/>
<path d="M95.0696 112.609H47.5359V113.055H95.0696V112.609Z" fill="#CCCCCC"/>
<path d="M49.037 109.82C49.8661 109.82 50.5382 109.146 50.5382 108.314C50.5382 107.483 49.8661 106.809 49.037 106.809C48.208 106.809 47.5359 107.483 47.5359 108.314C47.5359 109.146 48.208 109.82 49.037 109.82Z" fill="url(#paint2_linear_440_4259)"/>
<path d="M94.1999 129.756H79.1779C78.9185 129.756 78.6697 129.652 78.4862 129.468C78.3027 129.284 78.1995 129.035 78.1992 128.774V123.492C78.1995 123.232 78.3027 122.983 78.4862 122.799C78.6697 122.614 78.9185 122.511 79.1779 122.511H94.1999C94.4594 122.511 94.7081 122.614 94.8916 122.799C95.0751 122.983 95.1783 123.232 95.1786 123.492V128.774C95.1783 129.035 95.0751 129.284 94.8916 129.468C94.7081 129.652 94.4594 129.756 94.1999 129.756V129.756Z" fill="url(#paint3_linear_440_4259)"/>
<path d="M53.9335 94.7619C54.7626 94.7619 55.4347 94.0877 55.4347 93.256C55.4347 92.4243 54.7626 91.7501 53.9335 91.7501C53.1045 91.7501 52.4324 92.4243 52.4324 93.256C52.4324 94.0877 53.1045 94.7619 53.9335 94.7619Z" fill="url(#paint4_linear_440_4259)"/>
<path d="M58.8305 94.7619C59.6596 94.7619 60.3316 94.0877 60.3316 93.256C60.3316 92.4243 59.6596 91.7501 58.8305 91.7501C58.0014 91.7501 57.3293 92.4243 57.3293 93.256C57.3293 94.0877 58.0014 94.7619 58.8305 94.7619Z" fill="url(#paint5_linear_440_4259)"/>
<path d="M53.9335 109.82C54.7626 109.82 55.4347 109.146 55.4347 108.314C55.4347 107.483 54.7626 106.809 53.9335 106.809C53.1045 106.809 52.4324 107.483 52.4324 108.314C52.4324 109.146 53.1045 109.82 53.9335 109.82Z" fill="url(#paint6_linear_440_4259)"/>
<path d="M58.8305 109.82C59.6596 109.82 60.3316 109.146 60.3316 108.314C60.3316 107.483 59.6596 106.809 58.8305 106.809C58.0014 106.809 57.3293 107.483 57.3293 108.314C57.3293 109.146 58.0014 109.82 58.8305 109.82Z" fill="url(#paint7_linear_440_4259)"/>
<path d="M161.395 163H5.23715C4.90286 163 4.63208 162.881 4.63208 162.734C4.63208 162.588 4.90286 162.468 5.23715 162.468H161.395C161.729 162.468 162 162.587 162 162.734C162 162.881 161.729 163 161.395 163Z" fill="#3F3D56"/>
<path d="M122.814 106.793C122.921 106.841 123.023 106.899 123.121 106.964L132.876 102.788L133.224 100.21L137.122 100.186L136.892 106.098L124.016 109.514C123.989 109.604 123.957 109.692 123.919 109.778C123.733 110.176 123.433 110.511 123.058 110.739C122.683 110.967 122.249 111.079 121.811 111.061C121.373 111.043 120.95 110.895 120.595 110.637C120.24 110.378 119.969 110.02 119.816 109.607C119.664 109.195 119.636 108.746 119.737 108.318C119.837 107.889 120.062 107.5 120.382 107.2C120.702 106.899 121.104 106.7 121.537 106.627C121.969 106.555 122.414 106.612 122.814 106.793V106.793Z" fill="#FFB8B8"/>
<path d="M138.54 160.37H135.873L134.605 150.052L138.54 150.052L138.54 160.37Z" fill="#FFB8B8"/>
<path d="M133.968 159.605H139.111V162.853H130.73C130.73 161.992 131.072 161.166 131.679 160.557C132.286 159.947 133.11 159.605 133.968 159.605Z" fill="#252D2E"/>
<path d="M148.91 159.614L146.256 159.876L143.985 149.733L147.902 149.346L148.91 159.614Z" fill="#FFB8B8"/>
<path d="M144.286 159.303L149.403 158.797L149.721 162.029L141.381 162.854C141.339 162.429 141.381 162 141.505 161.592C141.628 161.184 141.831 160.804 142.1 160.475C142.37 160.145 142.702 159.872 143.077 159.671C143.452 159.47 143.863 159.345 144.286 159.303Z" fill="#252D2E"/>
<path d="M139.282 89.2666C142.232 89.2666 144.624 86.8674 144.624 83.9078C144.624 80.9482 142.232 78.549 139.282 78.549C136.332 78.549 133.94 80.9482 133.94 83.9078C133.94 86.8674 136.332 89.2666 139.282 89.2666Z" fill="#FFB8B8"/>
<path d="M135.277 158.283C135.048 158.284 134.826 158.203 134.65 158.055C134.475 157.908 134.357 157.703 134.317 157.476C132.937 149.791 128.426 124.66 128.318 123.964C128.315 123.948 128.314 123.932 128.314 123.916V122.042C128.314 121.974 128.335 121.907 128.375 121.852L128.971 121.015C128.999 120.974 129.036 120.941 129.08 120.917C129.123 120.894 129.171 120.88 129.22 120.878C132.617 120.718 143.745 120.25 144.282 120.924C144.822 121.601 144.632 123.653 144.588 124.057L144.59 124.099L149.589 156.171C149.628 156.427 149.565 156.688 149.414 156.898C149.263 157.107 149.036 157.249 148.781 157.291L145.659 157.807C145.426 157.845 145.188 157.797 144.987 157.674C144.787 157.55 144.637 157.358 144.566 157.133C143.6 154.037 140.362 143.623 139.239 139.594C139.232 139.568 139.216 139.546 139.194 139.532C139.172 139.517 139.146 139.511 139.12 139.515C139.093 139.518 139.07 139.532 139.052 139.552C139.035 139.572 139.026 139.597 139.026 139.624C139.082 143.465 139.218 153.265 139.265 156.65L139.27 157.015C139.272 157.262 139.181 157.5 139.017 157.684C138.852 157.867 138.624 157.981 138.379 158.005L135.369 158.279C135.338 158.282 135.307 158.283 135.277 158.283Z" fill="#252D2E"/>
<path d="M135.891 91.3736C134.959 91.9296 134.401 92.9512 134.081 93.9908C133.489 95.9154 133.132 97.9053 133.019 99.9165L132.681 105.938L128.493 121.903C132.122 124.984 134.216 124.284 139.102 121.764C143.988 119.243 144.546 122.604 144.546 122.604L145.524 109.02L146.92 94.1765C146.606 93.798 146.252 93.4559 145.862 93.1567C144.572 92.1501 143.071 91.4505 141.472 91.1106C139.873 90.7706 138.218 90.7991 136.631 91.194L135.891 91.3736Z" fill="url(#paint8_linear_440_4259)"/>
<path d="M134.531 110.017C134.644 110.059 134.753 110.111 134.857 110.17L144.503 105.327L144.663 102.703L148.642 102.428L148.855 108.409L135.965 112.685C135.86 113.138 135.619 113.548 135.276 113.861C134.933 114.173 134.503 114.374 134.044 114.435C133.584 114.497 133.117 114.417 132.704 114.205C132.291 113.994 131.952 113.661 131.732 113.252C131.512 112.843 131.422 112.376 131.473 111.914C131.524 111.452 131.714 111.016 132.018 110.665C132.321 110.313 132.725 110.063 133.174 109.948C133.623 109.832 134.096 109.856 134.531 110.017Z" fill="#FFB8B8"/>
<path d="M146.85 94.2444C149.223 95.0847 149.641 104.188 149.641 104.188C146.849 102.647 143.498 105.168 143.498 105.168C143.498 105.168 142.8 102.787 141.963 99.7066C141.71 98.84 141.68 97.9233 141.875 97.0418C142.07 96.1603 142.485 95.3427 143.08 94.6652C143.08 94.6652 144.476 93.4036 146.85 94.2444Z" fill="url(#paint9_linear_440_4259)"/>
<path d="M144.071 85.3249C143.406 84.7907 142.498 85.7616 142.498 85.7616L141.965 80.9543C141.965 80.9543 138.638 81.3542 136.508 80.8208C134.378 80.2875 134.045 82.7572 134.045 82.7572C133.935 81.7596 133.913 80.7542 133.979 79.7526C134.112 78.5508 135.842 77.349 138.904 76.5477C141.965 75.7464 143.563 79.2185 143.563 79.2185C145.693 80.2866 144.737 85.8591 144.071 85.3249Z" fill="#252D2E"/>
<defs>
<linearGradient id="paint0_linear_440_4259" x1="79.2621" y1="51.7209" x2="79.2621" y2="62.3901" gradientUnits="userSpaceOnUse">
<stop stop-color="#00B4D8"/>
<stop offset="1" stop-color="#51A6FE"/>
</linearGradient>
<linearGradient id="paint1_linear_440_4259" x1="49.037" y1="91.7501" x2="49.037" y2="94.7619" gradientUnits="userSpaceOnUse">
<stop stop-color="#00B4D8"/>
<stop offset="1" stop-color="#51A6FE"/>
</linearGradient>
<linearGradient id="paint2_linear_440_4259" x1="49.037" y1="106.809" x2="49.037" y2="109.82" gradientUnits="userSpaceOnUse">
<stop stop-color="#00B4D8"/>
<stop offset="1" stop-color="#51A6FE"/>
</linearGradient>
<linearGradient id="paint3_linear_440_4259" x1="86.6889" y1="122.511" x2="86.6889" y2="129.756" gradientUnits="userSpaceOnUse">
<stop stop-color="#00B4D8"/>
<stop offset="1" stop-color="#51A6FE"/>
</linearGradient>
<linearGradient id="paint4_linear_440_4259" x1="53.9335" y1="91.7501" x2="53.9335" y2="94.7619" gradientUnits="userSpaceOnUse">
<stop stop-color="#00B4D8"/>
<stop offset="1" stop-color="#51A6FE"/>
</linearGradient>
<linearGradient id="paint5_linear_440_4259" x1="58.8305" y1="91.7501" x2="58.8305" y2="94.7619" gradientUnits="userSpaceOnUse">
<stop stop-color="#00B4D8"/>
<stop offset="1" stop-color="#51A6FE"/>
</linearGradient>
<linearGradient id="paint6_linear_440_4259" x1="53.9335" y1="106.809" x2="53.9335" y2="109.82" gradientUnits="userSpaceOnUse">
<stop stop-color="#00B4D8"/>
<stop offset="1" stop-color="#51A6FE"/>
</linearGradient>
<linearGradient id="paint7_linear_440_4259" x1="58.8305" y1="106.809" x2="58.8305" y2="109.82" gradientUnits="userSpaceOnUse">
<stop stop-color="#00B4D8"/>
<stop offset="1" stop-color="#51A6FE"/>
</linearGradient>
<linearGradient id="paint8_linear_440_4259" x1="137.706" y1="90.8751" x2="137.706" y2="123.945" gradientUnits="userSpaceOnUse">
<stop stop-color="#00B4D8"/>
<stop offset="1" stop-color="#51A6FE"/>
</linearGradient>
<linearGradient id="paint9_linear_440_4259" x1="145.694" y1="93.9554" x2="145.694" y2="105.168" gradientUnits="userSpaceOnUse">
<stop stop-color="#00B4D8"/>
<stop offset="1" stop-color="#51A6FE"/>
</linearGradient>
</defs>
</svg>
