<svg width="191" height="51" viewBox="0 0 191 51" fill="none" xmlns="http://www.w3.org/2000/svg">
<path d="M48.4256 24.2128C48.4256 37.5852 37.5852 48.4256 24.2128 48.4256C10.8404 48.4256 0 37.5852 0 24.2128C0 10.8404 10.8404 0 24.2128 0C37.5852 0 48.4256 10.8404 48.4256 24.2128Z" fill="#00B4D8"/>
<path d="M12.3004 29.1816C11.5769 30.4123 12.4643 31.9634 13.892 31.9634L-nan -nanL13.892 31.9634C14.5563 31.9634 15.1694 31.6065 15.4974 31.0288L17.3194 27.8201C17.3311 27.7994 17.3531 27.7866 17.3769 27.7866L-nan -nanL17.3769 27.7866C17.4006 27.7866 17.4225 27.7993 17.4342 27.8199L19.2557 31.002C19.5961 31.5965 20.2287 31.9634 20.9138 31.9634L-nan -nanL20.9138 31.9634C22.4096 31.9634 23.3252 30.3223 22.5396 29.0494L20.0853 25.073C20.0722 25.0517 20.0653 25.0273 20.0653 25.0023L-nan -nanL20.0653 25.0023C20.0653 24.9771 20.0724 24.9523 20.0858 24.9309L22.5749 20.955C23.3505 19.7162 22.46 18.108 20.9984 18.108L-nan -nanL20.9984 18.108C20.2916 18.108 19.6459 18.5087 19.332 19.142L17.6723 22.4905C17.6618 22.5115 17.6404 22.5248 17.6169 22.5248L-nan -nanL17.6169 22.5248C17.5933 22.5248 17.5718 22.5115 17.5614 22.4904L15.9459 19.2166C15.6109 18.5378 14.9196 18.108 14.1626 18.108L-nan -nanL14.1626 18.108C12.6181 18.108 11.6632 19.7921 12.4562 21.1176L14.726 24.9113C14.739 24.933 14.7459 24.9579 14.7459 24.9832L-nan -nanL14.7459 24.9832C14.7459 25.0081 14.7392 25.0326 14.7266 25.0542L12.3004 29.1816Z" fill="#F3F6FD"/>
<path d="M28.7296 29.398C29.1876 30.9209 30.5898 31.9634 32.18 31.9634L-nan -nanL32.18 31.9634C33.7703 31.9634 35.1725 30.9209 35.6305 29.398L38.1952 20.8704C38.6092 19.4941 37.5787 18.108 36.1414 18.108L-nan -nanL36.1414 18.108C35.1345 18.108 34.2631 18.8085 34.0468 19.792L32.2267 28.066C32.2219 28.0879 32.2024 28.1035 32.18 28.1035L-nan -nanL32.18 28.1035C32.1576 28.1035 32.1382 28.0879 32.1334 28.066L30.3132 19.792C30.0969 18.8085 29.2255 18.108 28.2186 18.108L-nan -nanL28.2186 18.108C26.7813 18.108 25.7508 19.4941 26.1648 20.8704L28.7296 29.398Z" fill="#F3F6FD"/>
<path d="M43.4871 47.356C42.0656 45.9345 42.0656 43.6299 43.4871 42.2085L-nan -nanL43.4871 42.2085C44.9085 40.787 47.2131 40.787 48.6346 42.2085L49.0515 42.6254C50.473 44.0469 50.473 46.3515 49.0515 47.7729L-nan -nanL49.0515 47.7729C47.6301 49.1944 45.3255 49.1944 43.904 47.7729L43.4871 47.356Z" fill="#00B4D8"/>
<path d="M52.5224 32.7055C52.1306 33.3721 52.6112 34.2123 53.3845 34.2123H56.2163C56.5762 34.2123 56.9082 34.0189 57.0859 33.706L59.6216 29.2404C59.6356 29.2156 59.662 29.2003 59.6905 29.2003C59.719 29.2003 59.7452 29.2155 59.7594 29.2402L62.3174 33.709C62.4956 34.0203 62.8267 34.2123 63.1853 34.2123H66.2514C67.0343 34.2123 67.5136 33.3533 67.1024 32.687L62.9406 25.944C62.9249 25.9185 62.9165 25.8892 62.9165 25.8592C62.9165 25.8289 62.9251 25.7992 62.9412 25.7736L67.1085 19.1169C67.5255 18.4509 67.0467 17.5863 66.2609 17.5863H63.272C62.892 17.5863 62.5448 17.8017 62.376 18.1422L60.045 22.8451C60.0325 22.8703 60.0067 22.8863 59.9785 22.8863C59.9503 22.8863 59.9245 22.8703 59.912 22.845L57.5921 18.1438C57.4236 17.8024 57.076 17.5863 56.6953 17.5863H53.3888C52.6121 17.5863 52.1319 18.4332 52.5307 19.0997L56.5096 25.75C56.5252 25.7761 56.5335 25.8059 56.5335 25.8363C56.5335 25.8662 56.5255 25.8956 56.5103 25.9214L52.5224 32.7055Z" fill="#00B4D8"/>
<path d="M72.1423 20.3515C73.4673 20.3515 74.4812 19.3261 74.4812 18.1048C74.4812 16.8835 73.4673 15.858 72.1423 15.858C70.8173 15.858 69.8034 16.8835 69.8034 18.1048C69.8034 19.3261 70.8173 20.3515 72.1423 20.3515ZM69.7803 33.2123C69.7803 33.7645 70.228 34.2123 70.7803 34.2123H73.5043C74.0565 34.2123 74.5043 33.7645 74.5043 33.2123V22.4922C74.5043 21.9399 74.0565 21.4922 73.5043 21.4922H70.7803C70.228 21.4922 69.7803 21.9399 69.7803 22.4922V33.2123Z" fill="#00B4D8"/>
<path d="M76.6326 33.2123C76.6326 33.7645 77.0803 34.2123 77.6326 34.2123H80.3565C80.9088 34.2123 81.3565 33.7645 81.3565 33.2123V27.0687C81.3565 25.882 82.0363 25.0179 83.1539 25.0179C84.3406 25.0179 84.9398 25.8013 84.9398 27.0803V33.2123C84.9398 33.7645 85.3875 34.2123 85.9398 34.2123H88.6637C89.216 34.2123 89.6637 33.7645 89.6637 33.2123V26.0433C89.6637 22.99 88.0967 21.2157 85.297 21.2157C83.3863 21.2157 82.0891 22.1246 81.4618 23.8182C81.4539 23.8396 81.4335 23.8542 81.4107 23.8542C81.3808 23.8542 81.3565 23.8299 81.3565 23.8V22.4922C81.3565 21.9399 80.9088 21.4922 80.3565 21.4922H77.6326C77.0803 21.4922 76.6326 21.9399 76.6326 22.4922V33.2123Z" fill="#00B4D8"/>
<path d="M94.5285 33.5215C94.6624 33.9334 95.0463 34.2123 95.4795 34.2123H99.5656C100 34.2123 100.385 33.9315 100.518 33.5176L103.955 22.7975C104.162 22.1522 103.681 21.4922 103.003 21.4922H100.25C99.7739 21.4922 99.3636 21.8284 99.2699 22.2956L97.6542 30.3532C97.6489 30.3796 97.6257 30.3985 97.5989 30.3985C97.5721 30.3985 97.549 30.3798 97.5436 30.3536L95.8745 22.2895C95.7784 21.8252 95.3694 21.4922 94.8952 21.4922H91.9935C91.3141 21.4922 90.8324 22.1553 91.0425 22.8014L94.5285 33.5215Z" fill="#00B4D8"/>
<path d="M107.862 20.3515C109.187 20.3515 110.201 19.3261 110.201 18.1048C110.201 16.8835 109.187 15.858 107.862 15.858C106.537 15.858 105.523 16.8835 105.523 18.1048C105.523 19.3261 106.537 20.3515 107.862 20.3515ZM105.5 33.2123C105.5 33.7645 105.947 34.2123 106.5 34.2123H109.224C109.776 34.2123 110.224 33.7645 110.224 33.2123V22.4922C110.224 21.9399 109.776 21.4922 109.224 21.4922H106.5C105.947 21.4922 105.5 21.9399 105.5 22.4922V33.2123Z" fill="#00B4D8"/>
<path d="M118.666 34.4888C123.09 34.4888 124.542 31.8964 124.922 30.2372C124.94 30.1606 124.882 30.0875 124.803 30.0875H120.788C120.766 30.0875 120.747 30.1014 120.74 30.122C120.613 30.4907 120.002 31.2396 118.758 31.2396C117.802 31.2396 117.124 30.7653 116.818 29.9243C116.625 29.3937 117.105 28.9122 117.67 28.9122H124.014C124.567 28.9122 125.014 28.4645 125.014 27.9122V27.5757C125.014 23.7044 122.48 21.2157 118.516 21.2157C114.541 21.2157 112.029 23.7044 112.029 27.8407V27.8522C112.029 31.9886 114.541 34.4888 118.666 34.4888ZM118.643 24.4648C119.267 24.4648 119.776 24.7037 120.125 25.1452C120.513 25.6349 120.014 26.2392 119.39 26.2392H117.896C117.271 26.2392 116.773 25.6349 117.161 25.1452C117.51 24.7037 118.019 24.4648 118.643 24.4648Z" fill="#00B4D8"/>
<path d="M133.123 34.4888C137.017 34.4888 139.298 32.1614 139.298 29.0505C139.298 29.0123 139.267 28.9814 139.229 28.9814H135.116C135.051 28.9814 134.996 29.0312 134.989 29.0966C134.874 30.2603 134.24 30.9862 133.18 30.9862C131.924 30.9862 131.279 29.8916 131.279 27.8522V27.8407C131.279 25.8359 131.959 24.7183 133.18 24.7183C134.194 24.7183 134.874 25.4557 134.989 26.6079C134.996 26.6733 135.051 26.7231 135.116 26.7231H139.229C139.267 26.7231 139.298 26.6921 139.298 26.654C139.298 23.3702 136.798 21.2157 133.088 21.2157C129.009 21.2157 126.486 23.7044 126.486 27.8292V27.8407C126.486 32.0001 128.998 34.4888 133.123 34.4888Z" fill="#00B4D8"/>
<path d="M141.115 33.2123C141.115 33.7645 141.563 34.2123 142.115 34.2123H144.839C145.392 34.2123 145.839 33.7645 145.839 33.2123V18.5863C145.839 18.034 145.392 17.5863 144.839 17.5863H142.115C141.563 17.5863 141.115 18.034 141.115 18.5863V33.2123Z" fill="#00B4D8"/>
<path d="M151.874 34.3736C153.497 34.3736 154.677 33.7046 155.394 32.5129C155.404 32.4951 155.424 32.484 155.444 32.484C155.477 32.484 155.503 32.5103 155.503 32.5427V33.3481C155.503 33.8254 155.89 34.2123 156.367 34.2123H159.227C159.779 34.2123 160.227 33.7645 160.227 33.2123V25.5594C160.227 22.9785 157.865 21.2157 154.328 21.2157C150.618 21.2157 148.417 22.9094 148.221 25.5018C148.215 25.5826 148.279 25.6516 148.36 25.6516H152.309C152.377 25.6516 152.436 25.6033 152.45 25.5363C152.553 25.0179 153.095 24.5916 154.063 24.5916C155.031 24.5916 155.503 25.0524 155.503 25.7898C155.503 26.0814 155.277 26.3229 154.986 26.3418L152.83 26.4811C149.443 26.7116 147.553 28.0596 147.553 30.5138V30.5253C147.553 32.7144 149.304 34.3736 151.874 34.3736ZM152.162 30.1796V30.1681C152.162 29.5344 152.611 29.1427 153.613 29.0735L154.699 28.9941C155.133 28.9623 155.503 29.3062 155.503 29.7418C155.503 30.5829 154.731 31.2051 153.602 31.2051C152.726 31.2051 152.162 30.8479 152.162 30.1796Z" fill="#00B4D8"/>
<path d="M167.01 34.4888C168.839 34.4888 170.215 33.5812 170.799 32.07C170.807 32.0489 170.827 32.0346 170.85 32.0346C170.88 32.0346 170.904 32.059 170.904 32.0891V33.2123C170.904 33.7645 171.352 34.2123 171.904 34.2123H174.628C175.181 34.2123 175.628 33.7645 175.628 33.2123V18.5863C175.628 18.034 175.181 17.5863 174.628 17.5863H171.904C171.352 17.5863 170.904 18.034 170.904 18.5863V23.7307C170.904 23.7607 170.88 23.785 170.85 23.785C170.827 23.785 170.807 23.7707 170.799 23.7495C170.193 22.1579 168.84 21.2157 167.033 21.2157C163.83 21.2157 162.044 23.5776 162.044 27.8407V27.8522C162.044 32.0923 163.853 34.4888 167.01 34.4888ZM168.865 30.6866C167.632 30.6866 166.837 29.6035 166.837 27.8522V27.8407C166.837 26.0663 167.644 25.0179 168.865 25.0179C170.098 25.0179 170.904 26.0663 170.904 27.8522V27.8637C170.904 29.6381 170.109 30.6866 168.865 30.6866Z" fill="#00B4D8"/>
<path d="M184.082 34.4888C188.506 34.4888 189.958 31.8964 190.338 30.2372C190.356 30.1606 190.298 30.0875 190.219 30.0875H186.204C186.182 30.0875 186.163 30.1014 186.156 30.122C186.029 30.4907 185.419 31.2396 184.174 31.2396C183.218 31.2396 182.54 30.7653 182.235 29.9243C182.042 29.3937 182.522 28.9122 183.086 28.9122H189.431C189.983 28.9122 190.431 28.4645 190.431 27.9122V27.5757C190.431 23.7044 187.896 21.2157 183.932 21.2157C179.957 21.2157 177.446 23.7044 177.446 27.8407V27.8522C177.446 31.9886 179.957 34.4888 184.082 34.4888ZM184.059 24.4648C184.683 24.4648 185.192 24.7037 185.541 25.1452C185.929 25.6349 185.43 26.2392 184.806 26.2392H183.312C182.688 26.2392 182.189 25.6349 182.577 25.1452C182.926 24.7037 183.435 24.4648 184.059 24.4648Z" fill="#00B4D8"/>
</svg>
