<svg width="39" height="38" viewBox="0 0 39 38" fill="none" xmlns="http://www.w3.org/2000/svg">
<path d="M13.1512 3.16284V7.90703" stroke="white" stroke-width="2.37209" stroke-miterlimit="10" stroke-linecap="round" stroke-linejoin="round"/>
<path d="M25.8023 3.16284V7.90703" stroke="white" stroke-width="2.37209" stroke-miterlimit="10" stroke-linecap="round" stroke-linejoin="round"/>
<path d="M33.7093 13.4419V21.5545C32.3019 20.4317 30.5149 19.7675 28.5698 19.7675C26.6247 19.7675 24.806 20.4474 23.3828 21.6018C21.4693 23.1042 20.2674 25.4605 20.2674 28.0698C20.2674 29.6196 20.7102 31.1061 21.4693 32.3396C22.0544 33.3042 22.8135 34.1424 23.7149 34.7907H13.1512C7.61628 34.7907 5.24419 31.6279 5.24419 26.8837V13.4419C5.24419 8.6977 7.61628 5.53491 13.1512 5.53491H25.8023C31.3372 5.53491 33.7093 8.6977 33.7093 13.4419Z" stroke="white" stroke-width="2.37209" stroke-miterlimit="10" stroke-linecap="round" stroke-linejoin="round"/>
<path d="M11.5698 17.3953H21.0581" stroke="white" stroke-width="2.37209" stroke-miterlimit="10" stroke-linecap="round" stroke-linejoin="round"/>
<path d="M11.5698 25.3022H15.713" stroke="white" stroke-width="2.37209" stroke-miterlimit="10" stroke-linecap="round" stroke-linejoin="round"/>
<path d="M36.8721 28.0697C36.8721 29.6194 36.4293 31.106 35.6702 32.3394C35.2274 33.0985 34.674 33.7627 34.0256 34.3004C32.5707 35.5971 30.673 36.372 28.5698 36.372C26.7512 36.372 25.0749 35.7869 23.7149 34.7906C22.8135 34.1422 22.0544 33.3041 21.4693 32.3394C20.7102 31.106 20.2674 29.6194 20.2674 28.0697C20.2674 25.4604 21.4693 23.104 23.3828 21.6017C24.806 20.4473 26.6247 19.7673 28.5698 19.7673C30.5149 19.7673 32.3019 20.4315 33.7093 21.5543C35.6386 23.0725 36.8721 25.4287 36.8721 28.0697Z" stroke="white" stroke-width="2.37209" stroke-miterlimit="10" stroke-linecap="round" stroke-linejoin="round"/>
<path d="M28.5698 32.0232C28.5698 29.8409 30.3409 28.0697 32.5232 28.0697C30.3409 28.0697 28.5698 26.2985 28.5698 24.1162C28.5698 26.2985 26.7986 28.0697 24.6163 28.0697C26.7986 28.0697 28.5698 29.8409 28.5698 32.0232Z" stroke="white" stroke-width="2.37209" stroke-linecap="round" stroke-linejoin="round"/>
</svg>
